<svg width="149" height="184" viewBox="0 0 149 184" fill="none" xmlns="http://www.w3.org/2000/svg">
<g clip-path="url(#clip0_573_13085)">
<path d="M5.48608 33.8024C34.675 26.849 50.2647 20.3283 74.831 7.65288C98.9628 21.3031 115.197 27.1055 144.316 33.8209L133.32 136.983C132.586 138 131.37 139.333 129.623 140.95C127.549 142.869 124.921 145.019 121.906 147.309C115.881 151.886 108.479 156.897 101.254 161.56C94.0384 166.218 87.0431 170.501 81.8489 173.622C79.2531 175.181 77.1097 176.449 75.6164 177.326C75.3424 177.487 75.0894 177.634 74.8605 177.768C74.742 177.702 74.6171 177.632 74.4865 177.559C73.2182 176.85 71.3849 175.814 69.1337 174.511C64.6289 171.905 58.4597 168.238 51.7988 163.994C38.7634 155.689 24.2739 145.441 16.4567 136.72L5.48608 33.8024Z" fill="#EDF5FA" stroke="#001A51" stroke-width="7"/>
<mask id="mask0_573_13085" style="mask-type:alpha" maskUnits="userSpaceOnUse" x="1" y="3" width="148" height="179">
<path d="M1.77402 30.9812C33.2359 23.6819 48.785 17.1479 74.9033 3.60703C100.377 18.1627 116.602 23.8745 148.032 30.9813L136.593 138.306C129.3 150.472 74.9033 181.855 74.9033 181.855C74.9033 181.855 29.2082 156.99 13.2145 138.307L1.77402 30.9812Z" fill="#EDF5FA"/>
</mask>
<g mask="url(#mask0_573_13085)">
<rect width="171.713" height="63.6848" transform="matrix(0.852162 -0.523279 0.477077 0.878862 -8.71851 100.128)" fill="#000335"/>
<path d="M-0.279297 119.371L146.048 29.5172L156 47.8508L9.67281 137.705L-0.279297 119.371Z" fill="#EDF5FA"/>
</g>
<path d="M5.48608 32.7388C34.675 25.7854 50.2647 19.2647 74.831 6.58928C98.9628 20.2395 115.197 26.0419 144.316 32.7573L133.32 135.919C132.586 136.936 131.37 138.27 129.623 139.887C127.549 141.806 124.921 143.955 121.906 146.245C115.881 150.822 108.479 155.833 101.254 160.497C94.0384 165.154 87.0431 169.438 81.8489 172.558C79.2531 174.118 77.1097 175.386 75.6164 176.263C75.3424 176.424 75.0894 176.57 74.8605 176.704C74.742 176.638 74.6171 176.569 74.4865 176.496C73.2182 175.786 71.3849 174.75 69.1337 173.448C64.6289 170.841 58.4597 167.174 51.7988 162.931C38.7634 154.626 24.2739 144.377 16.4567 135.656L5.48608 32.7388Z" stroke="#001A51" stroke-width="7"/>
</g>
<defs>
<clipPath id="clip0_573_13085">
<rect width="149" height="184" fill="white"/>
</clipPath>
</defs>
</svg>
